<svg xmlns="http://www.w3.org/2000/svg" viewBox="0 0 150 58" height="58" width="150" xmlns:xlink="http://www.w3.org/1999/xlink">
          <g fill="none" fill-rule="evenodd">
            <g fill="currentColor" fill-rule="nonzero">
              <path d="M114.082 45.764c-2.94-2.228-6.8-1.934-9.32 1.43-2.645 3.49-1.89 7.273.881 9.375 3.317 2.523 6.465.966 7.935-.714.294-.337.167-.757-.127-1.01-.228-.214-.572-.248-.839-.084-.924.547-2.77 1.177-4.533-.168-1.512-1.177-1.343-2.9-.756-3.993l.88.42c4.41 2.102 6.466 2.06 7.599.505 1.344-1.81.63-3.995-1.72-5.76zm-.588 3.447c-.755 1.052-2.098 1.598-4.91.379l-.588-.253c1.631-2.522 3.945-3.574 5.246-2.522.84.67.84 1.555.252 2.396zM95.947 44.421c4.785.84 6.758.295 7.471-1.513.84-2.102-.46-3.994-3.19-5.086-3.4-1.346-7.052-.085-8.605 3.825-1.637 4.077.084 7.525 3.358 8.828 3.862 1.513 6.425-.799 7.43-2.816.098-.176.113-.386.04-.573-.073-.188-.226-.332-.417-.395-.336-.126-.588-.083-.84.21-1.098 1.254-2.875 1.661-4.408 1.01-1.763-.715-2.057-2.439-1.805-3.658l.966.168zm3.781-5.381c.966.42 1.26 1.303.881 2.27-.462 1.176-1.637 2.06-4.659 1.639l-.63-.084c.879-2.86 2.852-4.498 4.408-3.825zM86.921 44.756l1.386-8.281 3.36.547c.503.084.88-.169.965-.757.085-.588-.085-.925-.63-1.009l-3.652-.63c-.882-1.766-1.007-2.86-.84-3.826.21-1.303 1.092-2.018 1.973-1.892.797.126 1.007.673.882 1.346-.085.42-.21.882-.295 1.26-.204.968.462 1.724 1.512 1.934 1.092.21 1.973-.42 2.141-1.64.294-2.186-1.638-3.657-4.198-4.077-2.267-.379-4.828.084-5.29 2.942-.167 1.01 0 2.187.462 3.364l-2.14-.379c-.547-.084-.8.21-.925.757-.126.63.126.967.672 1.05l2.057.338-1.344 8.281c-.204 1.345-1.632 1.514-1.763 2.312-.042.294.167.556.504.589 1.981.19 3.904.504 5.877.883.462.084.84-.043.881-.42.085-.882-1.805-1.346-1.595-2.692zM76.385 30.38c.083.966.839 1.64 1.931 1.554 1.133-.083 1.763-.84 1.679-2.101-.126-2.187-2.35-3.153-4.953-3.027-2.309.127-4.66 1.136-4.534 4.036.042 1.009.504 2.144 1.218 3.153l-2.181.126c-.546.042-.798.379-.756.967.042.588.377.882.924.84l2.098-.125.504 8.407c.084 1.345-1.217 1.85-1.217 2.649 0 .336.251.504.587.462 1.973-.253 3.946-.462 5.914-.462.504 0 .84-.252.798-.59-.126-.923-2.057-.923-2.142-2.311l-.462-8.366 3.358-.21c.546-.042.84-.336.798-.967-.042-.546-.294-.882-.84-.84l-3.736.21c-1.217-1.514-1.511-2.607-1.595-3.574-.122-1.26.592-2.23 1.477-2.27.84-.042 1.05.462 1.133 1.135.039.42-.045.883-.003 1.303zM59.72 36.433c-3.738 1.219-5.752 4.666-4.451 8.703 1.3 3.994 5.037 5.55 8.77 4.29 3.731-1.26 5.75-4.71 4.45-8.703-1.302-3.994-4.991-5.51-8.77-4.29zm4.198 11.602c-2.1.673-3.905-2.437-4.87-5.297-.881-2.647-.714-4.455.755-4.96 2.1-.714 3.946 2.438 4.87 5.255.881 2.69.713 4.54-.755 5.002zM149.259 45.504c-1.512-2.27-3.773-1.555-4.03-2.102-.084-.168 0-.378.21-.546l.882-.588c.46-.295.419-.59-.043-.967l-2.812-2.523c-.588-.546-.798-.504-1.05-.337-.672.463.042 1.599-1.09 2.397l-5.416 3.742c-1.133.756-2.099.294-2.771.756-.121.082-.2.214-.217.36-.016.145.033.29.133.397 1.05 1.261 2.057 2.564 3.065 3.951.168.21.42.252.672.085.67-.463.293-1.472 1.384-2.228l4.409-3.071c1.049-.715 2.77-.925 3.61.336.461.673.839 1.682-1.89 4.036l-3.61 3.11c-.756.673-1.595-.084-2.182.295-.106.072-.18.184-.203.31-.024.126.004.256.076.362.966 1.472 1.805 2.792 2.73 4.347.167.253.461.336.713.168.63-.42.504-1.488 1.343-2.247l3.946-3.49c3.526-3.106 3.023-5.207 2.14-6.553zM143.592 31.279c1.05-.799 1.091-2.354.167-3.321-1.007-1.05-2.686-1.178-3.773-.379-1.087.799-1.174 2.312-.083 3.406.92.924 2.64 1.092 3.69.294zM139.898 34.558c.378-.379.335-.631-.169-.967l-3.19-2.018c-.713-.463-.923-.336-1.133-.126-.588.588.294 1.556-.671 2.523l-4.744 4.582c-.966.967-2.1.125-2.687.714-.21.21-.21.505.042.757 1.301 1.303 2.56 2.606 3.905 4.036.21.21.545.252.755.042.587-.59-.168-1.724.798-2.65l7.094-6.893zM126.884 37.29c-.587-.42-.714-.714-.204-1.471l3.143-4.877c1.89-2.901 1.386-5.424-1.637-7.694-1.931-1.471-5.5-1.807-6.507-.378-.378.547-.168 1.093.21 1.43.269.23.647.28.965.127.672-.337 2.1-.926 3.57.167 1.552 1.178 1.09 2.397.376 3.531l-.503.8c-.169.252-.252.252-.378.167-.251-.167-.84-1.303-1.72-1.976-2.016-1.597-4.828-2.27-6.591.043-1.596 2.102-1.008 4.414 1.26 6.18 1.846 1.43 3.315 1.177 4.196.84-.293 1.261.21 2.439 1.805 3.7.966.756 1.806 1.05 2.267.42.295-.378.085-.756-.252-1.009zm-2.77-5.044c-.923 1.22-1.973 1.261-2.771.672-.965-.715-1.428-1.933-.084-3.657.966-1.261 2.142-1.009 2.856-.463.88.673 1.216 1.85-.001 3.448zM117.23 13.118l-6.255 11.728c-.63 1.178-1.93.757-2.346 1.472-.168.294-.083.546.252.715 1.595.798 3.274 1.64 4.954 2.649.293.167.587.125.755-.169.42-.715-.713-1.555-.084-2.774l7.852-14.63c.251-.462.126-.673-.461-.84l-3.653-.967c-.797-.21-.966-.085-1.133.21-.427.714.79 1.387.118 2.606zM98.087 22.24c-.073.29.093.586.379.673 1.973.588 3.861 1.303 5.876 2.102.462.168.84.126 1.008-.21.378-.8-1.553-1.724-1.05-3.027l1.722-4.493 1.26.462c2.727 1.009 4.952-.252 5.624-1.807.504-1.135.168-1.976-1.008-2.439-.965-.378-1.637-.167-2.183.673-.629.967-1.631 2.606-2.77 2.27l-.546-.168 1.428-3.741c.21-.504.041-.673-.588-.757l-3.738-.51c-.798-.126-1.007.084-1.092.337-.252.756 1.007 1.303.462 2.606l-2.602 6.138c-.54 1.261-1.93 1.135-2.182 1.891zM91.498 21.484c4.113.756 6.002-2.06 6.758-4.162.168-.462-.126-.8-.546-.883-.335-.084-.587 0-.797.336-.546.883-1.932 2.27-4.156 1.85-1.847-.337-2.477-1.976-2.435-3.237h.966c4.869 0 6.759-1.05 7.094-2.943.377-2.228-1.26-3.825-4.156-4.372-3.652-.672-6.968 1.262-7.724 5.423-.797 4.288 1.553 7.358 4.996 7.988zm2.476-12.108c1.05.169 1.511 1.01 1.302 2.018-.252 1.262-1.218 2.312-4.283 2.523l-.63.042c.337-2.985 1.89-4.877 3.61-4.583zM70.211 4.13l.945 15.4c.022.545.493.846.983.804.337-.029.572-.168.75-.54.28-.588.64-1.58 1.159-2.233.643 1.32 2.214 2.727 4.309 2.597 2.683-.154 6.167-2.235 5.871-7.314-.291-4.995-3.467-6.503-5.937-6.4-1.3.055-2.155.722-2.72 1.291-.444.44-.68.829-.847.836-.126 0-.213-.076-.22-.243l-.45-7.761c-.026-.63-.571-.607-.86-.51l-3.61 1.122c-.665.197-.863.458-.85.794.034.784 1.376.731 1.477 2.158zm6.458 4.738c2.387-.184 3.282 3.145 3.438 5.873.156 2.727-.646 3.687-2.027 3.787-2.22.177-3.24-3.104-3.388-5.664-.157-2.77.72-3.901 1.977-3.996zM60.433 22.16c.294-.085.462-.337.378-.631-.21-.799-1.637-.63-2.015-1.934l-1.386-4.628c-.504-1.723-.168-3.32 1.26-3.825.838-.294 2.056-.21 3.315 3.11l1.722 4.584c.377 1.05-.63 1.597-.462 2.185.083.294.252.42.672.337 1.805-.379 3.554-.644 5.33-.883.294-.04.463-.378.378-.673-.21-.715-1.385-.799-1.847-1.85l-2.477-5.922c-1.631-3.91-3.772-4.205-5.499-3.7-2.812.84-2.98 3.279-3.569 3.531-.21.084-.335 0-.545-.21-1.091-1.093-2.477-1.303-4.03-.84-2.77.84-2.897 3.193-3.485 3.404-.125.042-.335 0-.42-.336l-.377-1.22c-.168-.504-.378-.63-.924-.294l-3.23 1.932c-.714.42-.714.63-.63.919.21.798 1.512.462 1.932 1.765l2.179 7.067c.42 1.303-.294 1.976-.084 2.732.084.295.378.421.672.295 1.637-.715 3.192-1.493 4.828-2.145.333-.133.503-.337.419-.631-.204-.799-1.595-.63-2.015-1.933l-1.637-4.877c-.587-1.766.462-3.742 1.637-4.078 1.26-.378 2.225.042 2.855 2.102l1.595 5.255c.378 1.303-.798 1.934-.588 2.732.084.295.379.383.671.295 1.934-.58 3.595-1.125 5.377-1.635zM40.2 29.22c1.091.671 2.392.671 4.114-.464 1.007-.672 1.553-1.344 1.133-2.017-.252-.38-.714-.336-1.05-.127-.629.42-.88.42-1.427-.252l-3.526-4.582c-2.142-2.775-4.618-3.153-7.808-1.093-2.057 1.345-3.442 4.54-2.52 6.054.337.546 1.008.546 1.429.252.29-.196.451-.534.42-.883-.085-.715-.169-2.312 1.343-3.28 1.637-1.05 2.56-.209 3.442.842l.588.715c.21.252.21.378.041.461-.168.084-1.51.337-2.434.926-2.141 1.387-3.736 3.783-2.183 6.222 1.428 2.228 3.862 2.48 6.213.924 1.972-1.303 2.267-2.775 2.224-3.699zm-5.201.04c-.882-1.344-.252-2.396.503-2.858.966-.59 2.142-.505 3.233 1.176.84 1.261.545 2.27-.295 2.816-1.011.674-2.228.716-3.445-1.133h.004zM30.671 34.936l-4.408-3.484c-3.695-2.9-5.71-2.017-6.843-.883-1.93 1.934-.882 3.867-1.343 4.33-.126.127-.336.085-.503-.084l-5.541-5.47c-.379-.378-.672-.336-.966.168L9.136 32.75c-.42.715-.336.924-.126 1.135.588.59 1.553-.336 2.56.63l9.403 9.334c.966.967.504 2.228 1.092 2.816.1.104.242.16.387.152.145-.008.28-.079.368-.194 1.092-1.346 2.225-2.69 3.526-3.994.169-.168.169-.462-.041-.673-.588-.588-1.512 0-2.477-.967l-3.82-3.74c-.881-.884-1.428-2.523-.336-3.616.588-.589 1.47-1.093 4.283 1.135l3.736 2.985c.798.63.21 1.597.714 2.102.21.21.461.21.63.042 1.299-1.298 2.672-2.519 4.113-3.657.21-.169.21-.505 0-.715-.547-.546-1.554.125-2.477-.59zM16.749 44.159c-.539-.344-.91-.382-1.163.017-.204.33-.15.598.145 1.015 1.057 1.498 1.273 3.283.32 4.786-1.979 3.124-5.65 3.656-10.29.701-3.722-2.376-4.405-4.52-3.167-6.468.998-1.574 2.74-1.981 4.943-.578 1.03.657 2.243.409 2.855-.555.745-1.174.21-2.768-1.267-3.708-2.297-1.464-5.32-.125-7.6 3.472-2.833 4.455-1.729 9.972 3.405 13.241 4.852 3.09 10.166 2.189 13.087-2.412 3.295-5.188.115-8.63-1.268-9.511zM52.617 46.208c-.306.235-.345.511-.214 1.003.473 1.775.058 3.524-1.355 4.596-2.94 2.235-6.562 1.454-9.891-2.941-2.676-3.53-2.57-5.78-.736-7.174 1.481-1.124 3.254-.9 4.836 1.186.74.978 1.964 1.167 2.87.478 1.105-.84 1.154-2.522.094-3.92-1.65-2.176-4.947-1.978-8.329.593-4.198 3.191-5.069 8.753-1.384 13.614 3.484 4.595 8.78 5.608 13.111 2.316 4.883-3.713 3.09-8.054 2.098-9.365-.386-.506-.72-.671-1.1-.386z"></path>
            </g>
          </g>
        </svg>