<?xml version="1.0" encoding="UTF-8"?>
<svg id="Layer_1" xmlns="http://www.w3.org/2000/svg" version="1.1" viewBox="0 0 150 58">
  <!-- Generator: Adobe Illustrator 29.0.1, SVG Export Plug-In . SVG Version: 2.1.0 Build 192)  -->
  <defs>
    <style>
      .st0 {
        fill: #fff;
      }
    </style>
  </defs>
  <path class="st0" d="M114.1,45.8c-2.9-2.2-6.8-1.9-9.3,1.4-2.6,3.5-1.9,7.3.9,9.4,3.3,2.5,6.5,1,7.9-.7.3-.3.2-.8-.1-1-.2-.2-.6-.2-.8,0-.9.5-2.8,1.2-4.5-.2-1.5-1.2-1.3-2.9-.8-4l.9.4c4.4,2.1,6.5,2.1,7.6.5,1.3-1.8.6-4-1.7-5.8h0ZM113.5,49.2c-.8,1.1-2.1,1.6-4.9.4l-.6-.3c1.6-2.5,3.9-3.6,5.2-2.5.8.7.8,1.6.3,2.4ZM95.9,44.4c4.8.8,6.8.3,7.5-1.5.8-2.1-.5-4-3.2-5.1-3.4-1.3-7.1,0-8.6,3.8-1.6,4.1,0,7.5,3.4,8.8,3.9,1.5,6.4-.8,7.4-2.8,0-.2.1-.4,0-.6,0-.2-.2-.3-.4-.4-.3-.1-.6,0-.8.2-1.1,1.3-2.9,1.7-4.4,1-1.8-.7-2.1-2.4-1.8-3.7l1,.2h0ZM99.7,39c1,.4,1.3,1.3.9,2.3-.5,1.2-1.6,2.1-4.7,1.6h-.6c.9-2.9,2.9-4.6,4.4-3.9ZM86.9,44.8l1.4-8.3,3.4.5c.5,0,.9-.2,1-.8s0-.9-.6-1l-3.7-.6c-.9-1.8-1-2.9-.8-3.8.2-1.3,1.1-2,2-1.9.8.1,1,.7.9,1.3,0,.4-.2.9-.3,1.3-.2,1,.5,1.7,1.5,1.9,1.1.2,2-.4,2.1-1.6.3-2.2-1.6-3.7-4.2-4.1-2.3-.4-4.8,0-5.3,2.9-.2,1,0,2.2.5,3.4l-2.1-.4c-.5,0-.8.2-.9.8-.1.6.1,1,.7,1l2.1.3-1.3,8.3c-.2,1.3-1.6,1.5-1.8,2.3,0,.3.2.6.5.6,2,.2,3.9.5,5.9.9.5,0,.8,0,.9-.4,0-.9-1.8-1.3-1.6-2.7ZM76.4,30.4c0,1,.8,1.6,1.9,1.6,1.1,0,1.8-.8,1.7-2.1-.1-2.2-2.3-3.2-5-3-2.3.1-4.7,1.1-4.5,4,0,1,.5,2.1,1.2,3.2h-2.2c-.5.2-.8.5-.8,1.1,0,.6.4.9.9.8h2.1c0-.1.5,8.3.5,8.3,0,1.3-1.2,1.8-1.2,2.6s.3.5.6.5c2-.3,3.9-.5,5.9-.5s.8-.3.8-.6c-.1-.9-2.1-.9-2.1-2.3l-.5-8.4,3.4-.2c.5,0,.8-.3.8-1,0-.5-.3-.9-.8-.8l-3.7.2c-1.2-1.5-1.5-2.6-1.6-3.6-.1-1.3.6-2.2,1.5-2.3.8,0,1.1.5,1.1,1.1,0,.4,0,.9,0,1.3h0ZM59.7,36.4c-3.7,1.2-5.8,4.7-4.5,8.7,1.3,4,5,5.5,8.8,4.3,3.7-1.3,5.8-4.7,4.4-8.7-1.3-4-5-5.5-8.8-4.3h0ZM63.9,48c-2.1.7-3.9-2.4-4.9-5.3-.9-2.6-.7-4.5.8-5,2.1-.7,3.9,2.4,4.9,5.3.9,2.7.7,4.5-.8,5ZM149.3,45.5c-1.5-2.3-3.8-1.6-4-2.1,0-.2,0-.4.2-.5l.9-.6c.5-.3.4-.6,0-1l-2.8-2.5c-.6-.5-.8-.5-1.1-.3-.7.5,0,1.6-1.1,2.4l-5.4,3.7c-1.1.8-2.1.3-2.8.8-.1,0-.2.2-.2.4,0,.1,0,.3.1.4,1.1,1.3,2.1,2.6,3.1,4,.2.2.4.3.7,0,.7-.5.3-1.5,1.4-2.2l4.4-3.1c1-.7,2.8-.9,3.6.3.5.7.8,1.7-1.9,4l-3.6,3.1c-.8.7-1.6,0-2.2.3-.1,0-.2.2-.2.3,0,.1,0,.3,0,.4,1,1.5,1.8,2.8,2.7,4.3.2.3.5.3.7.2.6-.4.5-1.5,1.3-2.2l3.9-3.5c3.5-3.1,3-5.2,2.1-6.6h0ZM143.6,31.3c1.1-.8,1.1-2.4.2-3.3-1-1-2.7-1.2-3.8-.4-1.1.8-1.2,2.3,0,3.4.9.9,2.6,1.1,3.7.3h0ZM139.9,34.6c.4-.4.3-.6-.2-1l-3.2-2c-.7-.5-.9-.3-1.1-.1-.6.6.3,1.6-.7,2.5l-4.7,4.6c-1,1-2.1.1-2.7.7-.2.2-.2.5,0,.8,1.3,1.3,2.6,2.6,3.9,4,.2.2.5.3.8,0,.6-.6-.2-1.7.8-2.7l7.1-6.9ZM126.9,37.3c-.6-.4-.7-.7-.2-1.5l3.1-4.9c1.9-2.9,1.4-5.4-1.6-7.7-1.9-1.5-5.5-1.8-6.5-.4-.4.5-.2,1.1.2,1.4.3.2.6.3,1,.1.7-.3,2.1-.9,3.6.2,1.6,1.2,1.1,2.4.4,3.5l-.5.8c-.2.3-.3.3-.4.2-.3-.2-.8-1.3-1.7-2-2-1.6-4.8-2.3-6.6,0-1.6,2.1-1,4.4,1.3,6.2,1.8,1.4,3.3,1.2,4.2.8-.3,1.3.2,2.4,1.8,3.7,1,.8,1.8,1,2.3.4.3-.4,0-.8-.3-1ZM124.1,32.2c-.9,1.2-2,1.3-2.8.7-1-.7-1.4-1.9,0-3.7,1-1.3,2.1-1,2.9-.5.9.7,1.2,1.9,0,3.4ZM117.2,13.1l-6.3,11.7c-.6,1.2-1.9.8-2.3,1.5-.2.3,0,.5.3.7,1.6.8,3.3,1.6,5,2.6.3.2.6.1.8-.2.4-.7-.7-1.6,0-2.8l7.9-14.6c.3-.5.1-.7-.5-.8l-3.7-1c-.8-.2-1,0-1.1.2-.4.7.8,1.4.1,2.6h0ZM98.1,22.2c0,.3,0,.6.4.7,2,.6,3.9,1.3,5.9,2.1.5.2.8.1,1-.2.4-.8-1.6-1.7-1.1-3l1.7-4.5,1.3.5c2.7,1,5-.3,5.6-1.8.5-1.1.2-2-1-2.4-1-.4-1.6-.2-2.2.7-.6,1-1.6,2.6-2.8,2.3l-.5-.2,1.4-3.7c.2-.5,0-.7-.6-.8l-3.7-.5c-.8-.1-1,0-1.1.3-.3.8,1,1.3.5,2.6l-2.6,6.1c-.5,1.3-1.9,1.1-2.2,1.9ZM91.5,21.5c4.1.8,6-2.1,6.8-4.2.2-.5-.1-.8-.5-.9-.3,0-.6,0-.8.3-.5.9-1.9,2.3-4.2,1.9-1.8-.3-2.5-2-2.4-3.2h1c4.9,0,6.8-1.1,7.1-2.9.4-2.2-1.3-3.8-4.2-4.4-3.7-.7-7,1.3-7.7,5.4-.8,4.3,1.6,7.4,5,8h0ZM94,9.4c1.1.2,1.5,1,1.3,2-.3,1.3-1.2,2.3-4.3,2.5h-.6c.3-2.9,1.9-4.8,3.6-4.5h0ZM70.2,4.1l.9,15.4c0,.5.5.8,1,.8.3,0,.6-.2.8-.5.3-.6.6-1.6,1.2-2.2.6,1.3,2.2,2.7,4.3,2.6,2.7-.2,6.2-2.2,5.9-7.3-.3-5-3.5-6.5-5.9-6.4-1.3,0-2.2.7-2.7,1.3-.4.4-.7.8-.8.8-.1,0-.2,0-.2-.2l-.4-7.8c0-.6-.6-.6-.9-.5l-3.6,1.1c-.7.2-.9.5-.8.8,0,.8,1.4.7,1.5,2.2h0ZM76.7,8.9c2.4-.2,3.3,3.1,3.4,5.9.2,2.7-.6,3.7-2,3.8-2.2.2-3.2-3.1-3.4-5.7-.2-2.8.7-3.9,2-4ZM60.4,22.2c.3,0,.5-.3.4-.6-.2-.8-1.6-.6-2-1.9l-1.4-4.6c-.5-1.7-.2-3.3,1.3-3.8.8-.3,2.1-.2,3.3,3.1l1.7,4.6c.4,1-.6,1.6-.5,2.2,0,.3.3.4.7.3,1.8-.4,3.6-.6,5.3-.9.3,0,.5-.4.4-.7-.2-.7-1.4-.8-1.8-1.9l-2.5-5.9c-1.6-3.9-3.8-4.2-5.5-3.7-2.8.8-3,3.3-3.6,3.5-.2,0-.3,0-.5-.2-1.1-1.1-2.5-1.3-4-.8-2.8.8-2.9,3.2-3.5,3.4-.1,0-.3,0-.4-.3l-.4-1.2c-.2-.5-.4-.6-.9-.3l-3.2,1.9c-.7.4-.7.6-.6.9.2.8,1.5.5,1.9,1.8l2.2,7.1c.4,1.3-.3,2,0,2.7,0,.3.4.4.7.3,1.6-.7,3.2-1.5,4.8-2.1.3-.1.5-.3.4-.6-.2-.8-1.6-.6-2-1.9l-1.6-4.9c-.6-1.8.5-3.7,1.6-4.1,1.3-.4,2.2,0,2.9,2.1l1.6,5.3c.4,1.3-.8,1.9-.6,2.7,0,.3.4.4.7.3,1.9-.6,3.6-1.1,5.4-1.6ZM40.2,29.2c1.1.7,2.4.7,4.1-.5,1-.7,1.6-1.3,1.1-2-.3-.4-.7-.3-1-.1-.6.4-.9.4-1.4-.3l-3.5-4.6c-2.1-2.8-4.6-3.2-7.8-1.1-2.1,1.3-3.4,4.5-2.5,6.1.3.5,1,.5,1.4.3.3-.2.5-.5.4-.9,0-.7-.2-2.3,1.3-3.3,1.6-1,2.6-.2,3.4.8l.6.7c.2.3.2.4,0,.5-.2,0-1.5.3-2.4.9-2.1,1.4-3.7,3.8-2.2,6.2,1.4,2.2,3.9,2.5,6.2.9,2-1.3,2.3-2.8,2.2-3.7h0ZM35,29.3c-.9-1.3-.3-2.4.5-2.9,1-.6,2.1-.5,3.2,1.2.8,1.3.5,2.3-.3,2.8-1,.7-2.2.7-3.4-1.1h0,0ZM30.7,34.9l-4.4-3.5c-3.7-2.9-5.7-2-6.8-.9-1.9,1.9-.9,3.9-1.3,4.3-.1.1-.3,0-.5,0l-5.5-5.5c-.4-.4-.7-.3-1,.2l-1.9,3.2c-.4.7-.3.9-.1,1.1.6.6,1.6-.3,2.6.6l9.4,9.3c1,1,.5,2.2,1.1,2.8.1.1.2.2.4.2.1,0,.3,0,.4-.2,1.1-1.3,2.2-2.7,3.5-4,.2-.2.2-.5,0-.7-.6-.6-1.5,0-2.5-1l-3.8-3.7c-.9-.9-1.4-2.5-.3-3.6.6-.6,1.5-1.1,4.3,1.1l3.7,3c.8.6.2,1.6.7,2.1.2.2.5.2.6,0,1.3-1.3,2.7-2.5,4.1-3.7.2-.2.2-.5,0-.7-.5-.5-1.6.1-2.5-.6h0ZM16.7,44.2c-.5-.3-.9-.4-1.2,0-.2.3-.1.6.1,1,1.1,1.5,1.3,3.3.3,4.8-2,3.1-5.6,3.7-10.3.7-3.7-2.4-4.4-4.5-3.2-6.5,1-1.6,2.7-2,4.9-.6,1,.7,2.2.4,2.9-.6.7-1.2.2-2.8-1.3-3.7-2.3-1.5-5.3-.1-7.6,3.5-2.8,4.5-1.7,10,3.4,13.2,4.9,3.1,10.2,2.2,13.1-2.4,3.3-5.2.1-8.6-1.3-9.5ZM52.6,46.2c-.3.2-.3.5-.2,1,.5,1.8,0,3.5-1.4,4.6-2.9,2.2-6.6,1.5-9.9-2.9-2.7-3.5-2.6-5.8-.7-7.2,1.5-1.1,3.3-.9,4.8,1.2.7,1,2,1.2,2.9.5,1.1-.8,1.2-2.5,0-3.9-1.7-2.2-4.9-2-8.3.6-4.2,3.2-5.1,8.8-1.4,13.6,3.5,4.6,8.8,5.6,13.1,2.3,4.9-3.7,3.1-8.1,2.1-9.4-.4-.5-.7-.7-1.1-.4Z"/>
</svg>